<svg xmlns="http://www.w3.org/2000/svg" viewBox="0 0 64 64" width="64" height="64"><defs><linearGradient id="g" x1="0" y1="0" x2="1" y2="1"><stop offset="0" stop-color="#38bdf8"/><stop offset="1" stop-color="#1d4ed8"/></linearGradient></defs><style>.b{animation:b 1.6s ease-in-out infinite}.s{transform-origin:52px 12px;animation:t 1.6s ease-in-out infinite}@keyframes b{0%,100%{transform:translateY(2px)}50%{transform:translateY(-4px)}}@keyframes t{0%,100%{transform:scale(.3);opacity:.3}50%{transform:scale(1);opacity:1}}</style>
<g class="b"><path d="M24 24v-5a8 8 0 0 1 16 0v5" fill="none" stroke="#7dd3fc" stroke-width="3.5" stroke-linecap="round"/><path d="M14 24h36l-3 26a5 5 0 0 1-5 4H22a5 5 0 0 1-5-4z" fill="url(#g)"/><circle cx="26" cy="33" r="2.2" fill="#fff"/><circle cx="38" cy="33" r="2.2" fill="#fff"/><path d="M25 40q7 7 14 0" stroke="#fff" stroke-width="2.6" fill="none" stroke-linecap="round"/></g>
<path class="s" d="M52 4l2.2 5.8L60 12l-5.8 2.2L52 20l-2.2-5.8L44 12l5.8-2.2z" fill="#fde047"/></svg>
